# xmcd
#
# Track frame offsets: 
#        150
#        26183
#        90765
#        145788
#        173309
#        195009
#
# Disc length: 2837 seconds
#
# Revision: 3
# Processed by: cddbd v1.5.2PL0 Copyright (c) Steve Scherf et al.
# Submitted via: ExactAudioCopy v0.95b4
#
DISCID=350b1306
DTITLE=Tangerine Dream - Tyger
DYEAR=1987
DGENRE=Electronic
TTITLE0=Tyger
TTITLE1=London
TTITLE2=Alchemy of the heart
TTITLE3=Smile
TTITLE4=21st Century common man (part I)
TTITLE5=21st Century common man (part II)
EXTD=
EXTT0=Tangerine dream 
EXTT1=
EXTT2=
EXTT3=
EXTT4=
EXTT5=
PLAYORDER=
